# xmcd
#
# Track frame offsets:
#	150
#	21181
#	46503
#	73613
#	115597
#	132962
#	180493
#	206187
#	225958
#	259042
#	290601
#
# Disc length: 4107 seconds
#
# Revision: 1
# Processed by: cddbd v1.5PL3 Copyright (c) Steve Scherf et al.
# Submitted via: audiograbber 1.82.01
#
DISCID=9110090b
DTITLE=Jimi Hendrix  - "L.A. Without The Words" - Outtake Masters
DYEAR=1900
DGENRE=
TTITLE0=Jimi Hendrix - 1983
TTITLE1=Jimi Hendrix - Beginnings
TTITLE2=Jimi Hendrix - Bolero
TTITLE3=Jimi Hendrix - Dancing Blues
TTITLE4=Jimi Hendrix - Ezy Ryder
TTITLE5=Jimi Hendrix - Lord I Sing The Blues For Me And You
TTITLE6=Jimi Hendrix - Lover Man
TTITLE7=Jimi Hendrix - Midnight Lightning
TTITLE8=Jimi Hendrix - Peace In Mississippi
TTITLE9=Jimi Hendrix - The Things I Used To Do
TTITLE10=Jimi Hendrix - Valleys Of Neptune
EXTD=
EXTT0=
EXTT1=
EXTT2=
EXTT3=
EXTT4=
EXTT5=
EXTT6=
EXTT7=
EXTT8=
EXTT9=
EXTT10=
PLAYORDER=
